# xmcd
#
# Track frame offsets: 
#        150
#        17648
#        34758
#        51249
#        66192
#        80646
#        97445
#        116019
#        134458
#        154887
#        170440
#        184692
#
# Disc length: 2644 seconds
#
# Revision: 0
# Processed by: cddbd v1.5.2PL0 Copyright (c) Steve Scherf et al.
# Submitted via: ExactAudioCopy v0.95b3
#
DISCID=a90a520c
DTITLE=Colbie Caillat - Coco
DYEAR=2007
DGENRE=Pop
TTITLE0=Oxygen
TTITLE1=Little Things
TTITLE2=One Fine Wine
TTITLE3=Bubbly
TTITLE4=Feelings Show
TTITLE5=Midnight Bottle
TTITLE6=Realize
TTITLE7=Battle
TTITLE8=Tailor Made
TTITLE9=Magic
TTITLE10=Tied Down
TTITLE11=Capri
EXTD=
EXTT0=
EXTT1=
EXTT2=
EXTT3=
EXTT4=
EXTT5=
EXTT6=
EXTT7=
EXTT8=
EXTT9=
EXTT10=
EXTT11=
PLAYORDER=
